<svg width="20" height="20" viewBox="0 0 20 20" fill="none" xmlns="http://www.w3.org/2000/svg">
<path d="M15 5.9037C15 6.1566 14.9068 6.4095 14.6939 6.60916C14.3079 6.99517 13.6689 6.99517 13.2829 6.59585C12.8969 6.20984 12.9102 5.58425 13.2962 5.18493C13.6823 4.79892 14.3212 4.81223 14.7072 5.19824C14.9068 5.3979 15 5.6508 14.9867 5.9037H15Z" fill="#3939EF"/>
<path d="M12 2.91281C12 2.77987 11.9734 2.64693 11.9202 2.52728C11.8671 2.40764 11.7873 2.30128 11.7075 2.20823C11.5214 2.02211 11.2555 1.90247 10.9897 1.90247C10.7238 1.90247 10.4712 2.00882 10.2851 2.18164C10.2053 2.2747 10.1256 2.38105 10.0724 2.50069C9.92614 2.87292 10.0059 3.31162 10.2718 3.5908C10.4579 3.77691 10.7238 3.88326 10.9764 3.89656C11.2422 3.89656 11.5081 3.79021 11.6942 3.61738C11.8804 3.43127 11.9867 3.17868 12 2.91281Z" fill="#3939EF"/>
<path d="M6 10.8928C5.74667 10.8928 5.48 10.7862 5.29333 10.5995C5.10667 10.4128 5 10.1462 5 9.89284C5 9.62617 5.10667 9.35951 5.29333 9.18617C5.66667 8.81284 6.34667 8.81284 6.70667 9.18617C6.89333 9.35951 7 9.62617 7 9.89284C7 10.1595 6.89333 10.4128 6.70667 10.5995C6.52 10.7862 6.26667 10.8928 6 10.8928Z" fill="#3939EF"/>
<path d="M2 10.8928C1.74667 10.8928 1.48 10.7862 1.29333 10.5995C1.10667 10.4128 1 10.1462 1 9.89284C1 9.62617 1.10667 9.35951 1.29333 9.18617C1.66667 8.81284 2.34667 8.81284 2.70667 9.18617C2.89333 9.35951 3 9.62617 3 9.89284C3 10.1595 2.89333 10.4128 2.70667 10.5995C2.52 10.7862 2.26667 10.8928 2 10.8928Z" fill="#3939EF"/>
<path d="M9 9.89951C9 9.33951 9.45333 8.89951 10 8.89951C10.56 8.89951 11 9.33951 11 9.89951C11 10.4462 10.56 10.8995 10 10.8995C9.45333 10.8995 9 10.4462 9 9.89951Z" fill="#3939EF"/>
<path d="M14 10.8928C13.7333 10.8928 13.48 10.7862 13.2933 10.5995C13.1067 10.4128 13 10.1462 13 9.89284C13 9.62617 13.1067 9.35951 13.2933 9.18617C13.6667 8.81284 14.3333 8.81284 14.7067 9.18617C14.8933 9.35951 15 9.62617 15 9.89284C15 10.1595 14.8933 10.4128 14.7067 10.5995C14.52 10.7862 14.2667 10.8928 14 10.8928Z" fill="#3939EF"/>
<path d="M18.9866 9.89332C18.9866 10.1475 18.8796 10.415 18.7057 10.6023C18.5184 10.7896 18.2509 10.8966 17.9967 10.91C17.8629 10.91 17.7292 10.8832 17.6088 10.8297C17.4884 10.7762 17.3813 10.7093 17.2877 10.6157C16.9131 10.2411 16.8998 9.57226 17.2743 9.1977C17.4616 9.01042 17.7158 8.9034 17.9833 8.89002C18.2509 8.87664 18.505 8.99704 18.6923 9.17095C18.8796 9.35823 18.9866 9.6124 19 9.87994L18.9866 9.89332Z" fill="#3939EF"/>
<path d="M14.7072 14.6008C14.3212 14.9868 13.6823 15.0001 13.2962 14.6141C12.9102 14.2148 12.8969 13.5892 13.2829 13.2032C13.6689 12.8038 14.3078 12.8038 14.6939 13.1899C14.8935 13.3895 14.9867 13.6424 15 13.8953C15 14.1482 14.9068 14.4011 14.7205 14.6008H14.7072Z" fill="#3939EF"/>
<path d="M12 16.8857C12 17.0187 11.9734 17.1516 11.9202 17.2712C11.8671 17.3909 11.7873 17.4972 11.7075 17.5903C11.5214 17.7764 11.2555 17.8828 10.9897 17.8961C10.7238 17.9093 10.4712 17.7897 10.2851 17.6169C10.2053 17.5238 10.1256 17.4175 10.0724 17.2978C9.92614 16.9256 10.0059 16.4869 10.2718 16.2077C10.4579 16.0216 10.7238 15.9153 10.9764 15.902C11.2422 15.902 11.5081 16.0083 11.6942 16.1811C11.8804 16.3673 11.9867 16.6198 12 16.8857Z" fill="#3939EF"/>
</svg>
