<svg width="21" height="20" viewBox="0 0 21 20" fill="none" xmlns="http://www.w3.org/2000/svg">
<path d="M15.8 5.9037C15.8 6.1566 15.7069 6.4095 15.4939 6.60916C15.1079 6.99517 14.469 6.99517 14.083 6.59585C13.697 6.20984 13.7103 5.58425 14.0963 5.18493C14.4823 4.79892 15.1212 4.81223 15.5072 5.19824C15.7069 5.3979 15.8 5.6508 15.7867 5.9037H15.8Z" fill="#1C1C77"/>
<path d="M12.8 2.91281C12.8 2.77987 12.7735 2.64693 12.7203 2.52728C12.6671 2.40764 12.5873 2.30128 12.5076 2.20823C12.3215 2.02211 12.0556 1.90247 11.7897 1.90247C11.5238 1.90247 11.2712 2.00882 11.0851 2.18164C11.0054 2.2747 10.9256 2.38105 10.8724 2.50069C10.7262 2.87292 10.806 3.31162 11.0718 3.5908C11.258 3.77691 11.5238 3.88326 11.7764 3.89656C12.0423 3.89656 12.3082 3.79021 12.4943 3.61738C12.6804 3.43127 12.7868 3.17868 12.8 2.91281Z" fill="#1C1C77"/>
<path d="M6.80005 10.8928C6.54672 10.8928 6.28005 10.7862 6.09338 10.5995C5.90672 10.4128 5.80005 10.1462 5.80005 9.89284C5.80005 9.62617 5.90672 9.35951 6.09338 9.18617C6.46672 8.81284 7.14672 8.81284 7.50672 9.18617C7.69338 9.35951 7.80005 9.62617 7.80005 9.89284C7.80005 10.1595 7.69338 10.4128 7.50672 10.5995C7.32005 10.7862 7.06672 10.8928 6.80005 10.8928Z" fill="#1C1C77"/>
<path d="M2.80005 10.8928C2.54672 10.8928 2.28005 10.7862 2.09338 10.5995C1.90672 10.4128 1.80005 10.1462 1.80005 9.89284C1.80005 9.62617 1.90672 9.35951 2.09338 9.18617C2.46672 8.81284 3.14672 8.81284 3.50672 9.18617C3.69338 9.35951 3.80005 9.62617 3.80005 9.89284C3.80005 10.1595 3.69338 10.4128 3.50672 10.5995C3.32005 10.7862 3.06672 10.8928 2.80005 10.8928Z" fill="#1C1C77"/>
<path d="M9.80005 9.89951C9.80005 9.33951 10.2534 8.89951 10.8 8.89951C11.36 8.89951 11.8 9.33951 11.8 9.89951C11.8 10.4462 11.36 10.8995 10.8 10.8995C10.2534 10.8995 9.80005 10.4462 9.80005 9.89951Z" fill="#1C1C77"/>
<path d="M14.8 10.8928C14.5334 10.8928 14.28 10.7862 14.0934 10.5995C13.9067 10.4128 13.8 10.1462 13.8 9.89284C13.8 9.62617 13.9067 9.35951 14.0934 9.18617C14.4667 8.81284 15.1334 8.81284 15.5067 9.18617C15.6934 9.35951 15.8 9.62617 15.8 9.89284C15.8 10.1595 15.6934 10.4128 15.5067 10.5995C15.32 10.7862 15.0667 10.8928 14.8 10.8928Z" fill="#1C1C77"/>
<path d="M19.7867 9.89332C19.7867 10.1475 19.6797 10.415 19.5057 10.6023C19.3185 10.7896 19.0509 10.8966 18.7967 10.91C18.663 10.91 18.5292 10.8832 18.4088 10.8297C18.2884 10.7762 18.1814 10.7093 18.0878 10.6157C17.7132 10.2411 17.6998 9.57226 18.0744 9.1977C18.2617 9.01042 18.5158 8.9034 18.7834 8.89002C19.0509 8.87664 19.3051 8.99704 19.4924 9.17095C19.6797 9.35823 19.7867 9.6124 19.8 9.87994L19.7867 9.89332Z" fill="#1C1C77"/>
<path d="M15.5072 14.6008C15.1212 14.9868 14.4823 15.0001 14.0963 14.6141C13.7103 14.2148 13.697 13.5892 14.083 13.2032C14.469 12.8038 15.1079 12.8038 15.4939 13.1899C15.6936 13.3895 15.7867 13.6424 15.8 13.8953C15.8 14.1482 15.7069 14.4011 15.5205 14.6008H15.5072Z" fill="#1C1C77"/>
<path d="M12.8 16.8857C12.8 17.0187 12.7735 17.1516 12.7203 17.2712C12.6671 17.3909 12.5873 17.4972 12.5076 17.5903C12.3215 17.7764 12.0556 17.8828 11.7897 17.8961C11.5238 17.9093 11.2712 17.7897 11.0851 17.6169C11.0054 17.5238 10.9256 17.4175 10.8724 17.2978C10.7262 16.9256 10.806 16.4869 11.0718 16.2077C11.258 16.0216 11.5238 15.9153 11.7764 15.902C12.0423 15.902 12.3082 16.0083 12.4943 16.1811C12.6804 16.3673 12.7868 16.6198 12.8 16.8857Z" fill="#1C1C77"/>
</svg>
