<svg width="327" height="46" viewBox="0 0 327 46" fill="none" xmlns="http://www.w3.org/2000/svg">
<g clip-path="url(#clip0_1211_46263)">
<path d="M31.2042 0.869968C29.8606 1.08526 28.5578 1.41087 27.3032 1.83612C25.941 2.29873 24.6364 2.877 23.4022 3.56024C22.0029 4.33601 20.6964 5.247 19.5012 6.27364C18.0203 7.54405 16.71 8.99416 15.604 10.5848V1.8379C14.2418 2.30051 12.9371 2.87878 11.703 3.56202C10.3037 4.33779 8.99714 5.24878 7.80198 6.27542C6.31915 7.54761 5.00707 8.9995 3.90099 10.5937C1.43642 14.147 0 18.4119 0 23.0007C0 27.5894 1.43642 31.8544 3.90099 35.4076C5.00707 37.0018 6.31915 38.4537 7.80198 39.7259C8.999 40.7525 10.3055 41.6635 11.703 42.4393C12.9371 43.1225 14.2418 43.7026 15.604 44.1634V35.4147C16.7082 37.0072 18.0203 38.4555 19.5012 39.7259C20.6982 40.7525 22.0048 41.6635 23.4022 42.4393C24.6364 43.1225 25.941 43.7026 27.3032 44.1634C28.5578 44.5887 29.8624 44.9143 31.2042 45.1296C32.4736 45.3342 33.7764 45.4409 35.1052 45.4409V0.558594C33.7764 0.558594 32.4736 0.66713 31.2042 0.869968Z" fill="white"/>
<path d="M52.792 37.8347C48.7091 33.8652 46.6992 28.9864 46.6992 23.145C46.6992 17.3036 48.711 12.3679 52.792 8.45525C56.8748 4.48568 62.0211 2.5 68.2326 2.5C75.7451 2.5 82.4892 6.12973 86.0394 11.859L79.0002 15.7734C76.9291 12.2006 72.965 10.1011 68.2326 10.1011C64.2091 10.1011 60.9558 11.2914 58.4708 13.7308C56.0453 16.1702 54.8037 19.2893 54.8037 23.1468C54.8037 27.0043 56.0453 30.0664 58.4708 32.5058C60.9558 34.9452 64.2091 36.1355 68.2326 36.1355C72.965 36.1355 77.0479 33.9808 79.0002 30.5201L86.0394 34.4345C82.4892 40.1638 75.8044 43.7935 68.2326 43.7935C62.0211 43.7935 56.8748 41.8079 52.792 37.8383V37.8347Z" fill="white"/>
<path d="M104.095 43.7869C99.7174 43.7869 95.9909 42.3688 92.9733 39.4757C89.9557 36.5826 88.4766 33.0098 88.4766 28.8125C88.4766 24.6152 89.9557 21.0993 92.9733 18.2062C95.9909 15.3131 99.7174 13.8398 104.095 13.8398C108.473 13.8398 112.2 15.3149 115.217 18.2062C118.235 21.0993 119.774 24.6152 119.774 28.8125C119.774 33.0098 118.235 36.5826 115.217 39.4757C112.2 42.3688 108.473 43.7869 104.095 43.7869ZM104.095 36.6395C106.402 36.6395 108.295 35.9029 109.834 34.4279C111.372 32.9529 112.14 31.0811 112.14 28.8125C112.14 26.5439 111.372 24.6721 109.834 23.1971C108.295 21.7221 106.402 20.9854 104.095 20.9854C101.789 20.9854 99.8956 21.7221 98.3571 23.1971C96.878 24.6721 96.1097 26.5439 96.1097 28.8125C96.1097 31.0811 96.878 32.9529 98.3571 34.4279C99.8956 35.9029 101.789 36.6395 104.095 36.6395Z" fill="white"/>
<path d="M123.441 6.75201C123.441 4.31262 125.572 2.21484 128.114 2.21484C130.657 2.21484 132.847 4.31262 132.847 6.75201C132.847 9.1914 130.716 11.2322 128.114 11.2322C125.513 11.2322 123.441 9.18962 123.441 6.75201ZM124.328 42.9959V14.636H131.96V42.9959H124.328Z" fill="white"/>
<path d="M162.713 16.9589C164.844 19.0567 165.907 21.8929 165.907 25.5795V42.9916H158.276V26.487C158.276 22.6864 155.969 20.6456 152.419 20.6456C148.455 20.6456 145.912 22.9711 145.912 27.6791V42.9934H138.281V14.6334H144.613L145.912 17.8094C147.746 15.1441 150.704 13.8398 154.728 13.8398C157.981 13.8398 160.644 14.8612 162.713 16.9589Z" fill="white"/>
<path d="M177.116 37.8347C173.033 33.8652 171.023 28.9864 171.023 23.145C171.023 17.3036 173.035 12.3679 177.116 8.45525C181.199 4.48568 186.345 2.5 192.557 2.5C200.069 2.5 206.813 6.12973 210.364 11.859L203.324 15.7734C201.253 12.2006 197.291 10.1011 192.557 10.1011C188.533 10.1011 185.28 11.2914 182.795 13.7308C180.369 16.1702 179.128 19.2893 179.128 23.1468C179.128 27.0043 180.369 30.0664 182.795 32.5058C185.28 34.9452 188.533 36.1355 192.557 36.1355C197.289 36.1355 201.372 33.9808 203.324 30.5201L210.364 34.4345C206.813 40.1638 200.129 43.7935 192.557 43.7935C186.345 43.7935 181.199 41.8079 177.116 37.8383V37.8347Z" fill="white"/>
<path d="M228.42 43.7869C224.042 43.7869 220.315 42.3688 217.297 39.4757C214.28 36.5826 212.801 33.0098 212.801 28.8125C212.801 24.6152 214.28 21.0993 217.297 18.2062C220.315 15.3131 224.042 13.8398 228.42 13.8398C232.798 13.8398 236.524 15.3149 239.542 18.2062C242.559 21.0993 244.096 24.6152 244.096 28.8125C244.096 33.0098 242.557 36.5826 239.542 39.4757C236.524 42.3688 232.798 43.7869 228.42 43.7869ZM228.42 36.6395C230.726 36.6395 232.619 35.9029 234.158 34.4279C235.696 32.9529 236.465 31.0811 236.465 28.8125C236.465 26.5439 235.696 24.6721 234.158 23.1971C232.619 21.7221 230.726 20.9854 228.42 20.9854C226.113 20.9854 224.22 21.7221 222.681 23.1971C221.202 24.6721 220.434 26.5439 220.434 28.8125C220.434 31.0811 221.202 32.9529 222.681 34.4279C224.22 35.9029 226.113 36.6395 228.42 36.6395Z" fill="white"/>
<path d="M283.183 31.8213C284.189 35.394 286.969 37.152 291.525 37.152C294.424 37.152 296.671 36.1876 298.15 34.3158L304.302 37.7196C301.404 41.7461 297.085 43.7887 291.406 43.7887C286.496 43.7887 282.591 42.3706 279.633 39.5344C276.674 36.6983 275.195 33.1255 275.195 28.8143C275.195 24.5031 276.674 20.9872 279.573 18.151C282.472 15.2579 286.258 13.8398 290.814 13.8398C295.133 13.8398 298.742 15.2579 301.522 18.151C304.362 21.0442 305.782 24.56 305.782 28.8143C305.782 29.7786 305.663 30.743 305.486 31.8213H283.183ZM298.15 26.1489C297.263 22.2914 294.305 20.4196 290.814 20.4196C286.731 20.4196 283.951 22.5174 283.064 26.1489H298.15Z" fill="white"/>
<path d="M318.01 19.511C319.43 15.8813 322.98 14.0664 327.002 14.0664V22.2333C324.695 21.9504 322.564 22.4041 320.731 23.5945C318.897 24.7848 318.01 26.7135 318.01 29.4358V42.9922H310.379V14.634H316.897L318.01 19.511Z" fill="white"/>
<path d="M266.789 14.6328H275.19L263.949 42.9928H255.253L244.012 14.6328H252.413L259.571 34.8401L266.789 14.6328Z" fill="white"/>
</g>
<defs>
<clipPath id="clip0_1211_46263">
<rect width="327" height="44.8824" fill="white" transform="translate(0 0.558594)"/>
</clipPath>
</defs>
</svg>
