<svg width="22" height="28" viewBox="0 0 22 28" fill="none" xmlns="http://www.w3.org/2000/svg">
<path d="M18.7719 0.194252C17.9636 0.328563 17.1799 0.531695 16.4252 0.796987C15.6057 1.08559 14.8208 1.44634 14.0784 1.87259C13.2366 2.35655 12.4506 2.92488 11.7316 3.56535C10.8407 4.3579 10.0525 5.26256 9.38709 6.25491V0.798097C8.56761 1.0867 7.78275 1.44745 7.04032 1.8737C6.19851 2.35766 5.41254 2.92599 4.69354 3.56646C3.8015 4.36012 3.01217 5.26589 2.34677 6.26046C0.86413 8.47715 0 11.1378 0 14.0006C0 16.8633 0.86413 19.524 2.34677 21.7407C3.01217 22.7352 3.8015 23.641 4.69354 24.4346C5.41365 25.0751 6.19963 25.6434 7.04032 26.1274C7.78275 26.5537 8.56761 26.9155 9.38709 27.203V21.7451C10.0514 22.7386 10.8407 23.6421 11.7316 24.4346C12.4517 25.0751 13.2377 25.6434 14.0784 26.1274C14.8208 26.5537 15.6057 26.9155 16.4252 27.203C17.1799 27.4683 17.9647 27.6714 18.7719 27.8057C19.5356 27.9334 20.3193 28 21.1187 28V0C20.3193 0 19.5356 0.0677106 18.7719 0.194252Z" fill="white"/>
</svg>
