<svg width="169" height="27" viewBox="0 0 169 27" fill="none" xmlns="http://www.w3.org/2000/svg">
<path d="M3.75843 22.7536C1.30225 20.2772 0.0931396 17.2335 0.0931396 13.5894C0.0931396 9.94519 1.30337 6.86603 3.75843 4.42511C6.21462 1.94868 9.31052 0.709911 13.0473 0.709911C17.5667 0.709911 21.6238 2.97433 23.7596 6.54856L19.5249 8.99058C18.2789 6.76168 15.8942 5.45187 13.0473 5.45187C10.6268 5.45187 8.66968 6.19447 7.17476 7.71629C5.71557 9.23812 4.96866 11.184 4.96866 13.5905C4.96866 15.997 5.71557 17.9073 7.17476 19.4291C8.66968 20.9509 10.6268 21.6935 13.0473 21.6935C15.8942 21.6935 18.3504 20.3493 19.5249 18.1903L23.7596 20.6324C21.6238 24.2066 17.6024 26.471 13.0473 26.471C9.31052 26.471 6.21462 25.2322 3.75843 22.7558V22.7536Z" fill="white"/>
<path d="M34.6215 26.4688C31.9878 26.4688 29.746 25.5841 27.9306 23.7792C26.1153 21.9744 25.2255 19.7455 25.2255 17.127C25.2255 14.5084 26.1153 12.3151 27.9306 10.5102C29.746 8.70531 31.9878 7.78622 34.6215 7.78622C37.2552 7.78622 39.497 8.70642 41.3124 10.5102C43.1277 12.3151 44.0533 14.5084 44.0533 17.127C44.0533 19.7455 43.1277 21.9744 41.3124 23.7792C39.497 25.5841 37.2552 26.4688 34.6215 26.4688ZM34.6215 22.0099C36.0093 22.0099 37.148 21.5503 38.0736 20.6301C38.9991 19.71 39.4613 18.5422 39.4613 17.127C39.4613 15.7117 38.9991 14.544 38.0736 13.6238C37.148 12.7036 36.0093 12.244 34.6215 12.244C33.2338 12.244 32.095 12.7036 31.1695 13.6238C30.2796 14.544 29.8174 15.7117 29.8174 17.127C29.8174 18.5422 30.2796 19.71 31.1695 20.6301C32.095 21.5503 33.2338 22.0099 34.6215 22.0099Z" fill="white"/>
<path d="M46.2605 3.36284C46.2605 1.84101 47.5421 0.53231 49.0717 0.53231C50.6012 0.53231 51.9186 1.84101 51.9186 3.36284C51.9186 4.88466 50.6369 6.15784 49.0717 6.15784C47.5064 6.15784 46.2605 4.88355 46.2605 3.36284ZM46.7941 25.9737V8.28129H51.385V25.9737H46.7941Z" fill="white"/>
<path d="M69.8856 9.73207C71.1673 11.0408 71.807 12.8101 71.807 15.1101V25.9726H67.2162V15.6762C67.2162 13.3052 65.8284 12.032 63.6927 12.032C61.3079 12.032 59.7784 13.4828 59.7784 16.4199V25.9737H55.1876V8.28129H58.9969L59.7784 10.2627C60.8814 8.59986 62.6611 7.78622 65.0815 7.78622C67.0386 7.78622 68.6408 8.42337 69.8856 9.73207Z" fill="white"/>
<path d="M78.5503 22.7536C76.0942 20.2772 74.885 17.2335 74.885 13.5894C74.885 9.94519 76.0953 6.86603 78.5503 4.42511C81.0065 1.94868 84.1024 0.709911 87.8392 0.709911C92.3585 0.709911 96.4157 2.97433 98.5515 6.54856L94.3168 8.99058C93.0708 6.76168 90.6872 5.45187 87.8392 5.45187C85.4187 5.45187 83.4616 6.19447 81.9667 7.71629C80.5075 9.23812 79.7606 11.184 79.7606 13.5905C79.7606 15.997 80.5075 17.9073 81.9667 19.4291C83.4616 20.9509 85.4187 21.6935 87.8392 21.6935C90.6861 21.6935 93.1423 20.3493 94.3168 18.1903L98.5515 20.6324C96.4157 24.2066 92.3943 26.471 87.8392 26.471C84.1024 26.471 81.0065 25.2322 78.5503 22.7558V22.7536Z" fill="white"/>
<path d="M109.413 26.4688C106.78 26.4688 104.538 25.5841 102.723 23.7792C100.907 21.9744 100.017 19.7455 100.017 17.127C100.017 14.5084 100.907 12.3151 102.723 10.5102C104.538 8.70531 106.78 7.78622 109.413 7.78622C112.047 7.78622 114.289 8.70642 116.104 10.5102C117.92 12.3151 118.844 14.5084 118.844 17.127C118.844 19.7455 117.919 21.9744 116.104 23.7792C114.289 25.5841 112.047 26.4688 109.413 26.4688ZM109.413 22.0099C110.801 22.0099 111.94 21.5503 112.865 20.6301C113.791 19.71 114.253 18.5422 114.253 17.127C114.253 15.7117 113.791 14.544 112.865 13.6238C111.94 12.7036 110.801 12.244 109.413 12.244C108.026 12.244 106.887 12.7036 105.961 13.6238C105.072 14.544 104.609 15.7117 104.609 17.127C104.609 18.5422 105.072 19.71 105.961 20.6301C106.887 21.5503 108.026 22.0099 109.413 22.0099Z" fill="white"/>
<path d="M142.358 19.0029C142.963 21.2318 144.635 22.3285 147.376 22.3285C149.12 22.3285 150.472 21.7268 151.362 20.5591L155.063 22.6826C153.319 25.1945 150.721 26.4688 147.304 26.4688C144.35 26.4688 142.001 25.5841 140.222 23.8148C138.442 22.0454 137.552 19.8165 137.552 17.127C137.552 14.4374 138.442 12.244 140.186 10.4747C141.93 8.66979 144.207 7.78511 146.948 7.78511C149.546 7.78511 151.718 8.66979 153.39 10.4747C155.098 12.2795 155.952 14.4729 155.952 17.127C155.952 17.7286 155.881 18.3302 155.775 19.0029H142.358ZM151.362 15.4642C150.828 13.0577 149.048 11.8899 146.948 11.8899C144.492 11.8899 142.82 13.1986 142.286 15.4642H151.362Z" fill="white"/>
<path d="M163.309 11.3238C164.163 9.0594 166.299 7.92719 168.718 7.92719V13.0221C167.33 12.8456 166.049 13.1287 164.945 13.8713C163.842 14.6139 163.309 15.8171 163.309 17.5155V25.9726H158.718V8.28129H162.639L163.309 11.3238Z" fill="white"/>
<path d="M132.496 8.28129H137.55L130.788 25.9737H125.556L118.794 8.28129H123.848L128.154 20.8877L132.496 8.28129Z" fill="white"/>
</svg>
