<svg width="157" height="26" viewBox="0 0 157 26" fill="none" xmlns="http://www.w3.org/2000/svg">
<path d="M3.48991 21.5926C1.20917 19.2931 0.0864258 16.4668 0.0864258 13.083C0.0864258 9.69909 1.21021 6.83987 3.48991 4.57331C5.77065 2.27376 8.64543 1.12347 12.1153 1.12347C16.3118 1.12347 20.0792 3.22615 22.0624 6.54508L18.1302 8.81267C16.9732 6.74298 14.7589 5.52672 12.1153 5.52672C9.8677 5.52672 8.05036 6.21628 6.66222 7.6294C5.30725 9.04252 4.6137 10.8494 4.6137 13.084C4.6137 15.3186 5.30725 17.0925 6.66222 18.5056C8.05036 19.9187 9.8677 20.6083 12.1153 20.6083C14.7589 20.6083 17.0396 19.3601 18.1302 17.3553L22.0624 19.6229C20.0792 22.9418 16.345 25.0445 12.1153 25.0445C8.64543 25.0445 5.77065 23.8942 3.48991 21.5947V21.5926Z" fill="#0E171B"/>
<path d="M32.1485 25.0424C29.7029 25.0424 27.6212 24.221 25.9355 22.545C24.2498 20.869 23.4236 18.7994 23.4236 16.3679C23.4236 13.9364 24.2498 11.8997 25.9355 10.2237C27.6212 8.54778 29.7029 7.69434 32.1485 7.69434C34.594 7.69434 36.6757 8.54881 38.3614 10.2237C40.0471 11.8997 40.9065 13.9364 40.9065 16.3679C40.9065 18.7994 40.0471 20.869 38.3614 22.545C36.6757 24.221 34.594 25.0424 32.1485 25.0424ZM32.1485 20.902C33.4371 20.902 34.4945 20.4753 35.3539 19.6208C36.2134 18.7664 36.6426 17.682 36.6426 16.3679C36.6426 15.0537 36.2134 13.9694 35.3539 13.1149C34.4945 12.2604 33.4371 11.8337 32.1485 11.8337C30.8598 11.8337 29.8024 12.2604 28.943 13.1149C28.1167 13.9694 27.6875 15.0537 27.6875 16.3679C27.6875 17.682 28.1167 18.7664 28.943 19.6208C29.8024 20.4753 30.8598 20.902 32.1485 20.902Z" fill="#0E171B"/>
<path d="M42.9561 3.5869C42.9561 2.17378 44.1462 0.958557 45.5665 0.958557C46.9867 0.958557 48.2101 2.17378 48.2101 3.5869C48.2101 5.00002 47.0199 6.18226 45.5665 6.18226C44.113 6.18226 42.9561 4.99899 42.9561 3.5869ZM43.4516 24.5827V8.15404H47.7145V24.5827H43.4516Z" fill="#0E171B"/>
<path d="M64.8938 9.50119C66.0839 10.7164 66.6779 12.3594 66.6779 14.495V24.5817H62.415V15.0207C62.415 12.8191 61.1264 11.6369 59.1432 11.6369C56.9288 11.6369 55.5085 12.984 55.5085 15.7113V24.5827H51.2456V8.15404H54.7828L55.5085 9.99388C56.5328 8.44986 58.1853 7.69434 60.4328 7.69434C62.2502 7.69434 63.7379 8.28597 64.8938 9.50119Z" fill="#0E171B"/>
<path d="M72.9396 21.5926C70.6589 19.2931 69.5361 16.4668 69.5361 13.083C69.5361 9.69909 70.6599 6.83987 72.9396 4.57331C75.2204 2.27376 78.0951 1.12347 81.565 1.12347C85.7615 1.12347 89.5289 3.22615 91.5121 6.54508L87.5799 8.81267C86.4229 6.74298 84.2096 5.52672 81.565 5.52672C79.3174 5.52672 77.5001 6.21628 76.1119 7.6294C74.757 9.04252 74.0634 10.8494 74.0634 13.084C74.0634 15.3186 74.757 17.0925 76.1119 18.5056C77.5001 19.9187 79.3174 20.6083 81.565 20.6083C84.2086 20.6083 86.4893 19.3601 87.5799 17.3553L91.5121 19.6229C89.5289 22.9418 85.7947 25.0445 81.565 25.0445C78.0951 25.0445 75.2204 23.8942 72.9396 21.5947V21.5926Z" fill="#0E171B"/>
<path d="M101.598 25.0424C99.1526 25.0424 97.0709 24.221 95.3852 22.545C93.6995 20.869 92.8733 18.7994 92.8733 16.3679C92.8733 13.9364 93.6995 11.8997 95.3852 10.2237C97.0709 8.54778 99.1526 7.69434 101.598 7.69434C104.044 7.69434 106.125 8.54881 107.811 10.2237C109.497 11.8997 110.355 13.9364 110.355 16.3679C110.355 18.7994 109.496 20.869 107.811 22.545C106.125 24.221 104.044 25.0424 101.598 25.0424ZM101.598 20.902C102.887 20.902 103.944 20.4753 104.804 19.6208C105.663 18.7664 106.092 17.682 106.092 16.3679C106.092 15.0537 105.663 13.9694 104.804 13.1149C103.944 12.2604 102.887 11.8337 101.598 11.8337C100.31 11.8337 99.2521 12.2604 98.3927 13.1149C97.5664 13.9694 97.1372 15.0537 97.1372 16.3679C97.1372 17.682 97.5664 18.7664 98.3927 19.6208C99.2521 20.4753 100.31 20.902 101.598 20.902Z" fill="#0E171B"/>
<path d="M132.189 18.1098C132.751 20.1795 134.304 21.1978 136.849 21.1978C138.468 21.1978 139.724 20.6392 140.55 19.5549L143.987 21.5266C142.367 23.8592 139.955 25.0424 136.783 25.0424C134.04 25.0424 131.858 24.221 130.206 22.578C128.553 20.935 127.727 18.8653 127.727 16.3679C127.727 13.8704 128.553 11.8337 130.173 10.1907C131.792 8.51479 133.907 7.6933 136.452 7.6933C138.864 7.6933 140.881 8.51479 142.434 10.1907C144.02 11.8667 144.813 13.9034 144.813 16.3679C144.813 16.9265 144.747 17.4852 144.648 18.1098H132.189ZM140.55 14.8238C140.054 12.5892 138.402 11.5049 136.452 11.5049C134.171 11.5049 132.618 12.7201 132.123 14.8238H140.55Z" fill="#0E171B"/>
<path d="M151.644 10.9793C152.437 8.87659 154.42 7.82526 156.667 7.82526V12.5563C155.378 12.3924 154.188 12.6552 153.164 13.3448C152.139 14.0343 151.644 15.1516 151.644 16.7286V24.5817H147.381V8.15406H151.022L151.644 10.9793Z" fill="#0E171B"/>
<path d="M123.032 8.15405H127.725L121.446 24.5828H116.588L110.309 8.15405H115.002L119 19.86L123.032 8.15405Z" fill="#0E171B"/>
</svg>
